<?xml version="1.0" encoding="UTF-8" standalone="no"?>
<!DOCTYPE svg PUBLIC "-//W3C//DTD SVG 1.1//EN"
 "http://www.w3.org/Graphics/SVG/1.1/DTD/svg11.dtd">
<!-- Generated by graphviz version 2.40.1 (20161225.0304)
 -->
<!-- Title: state transitions Pages: 1 -->
<svg width="231pt" height="352pt"
 viewBox="0.00 0.00 231.00 352.00" xmlns="http://www.w3.org/2000/svg" xmlns:xlink="http://www.w3.org/1999/xlink">
<g id="graph0" class="graph" transform="scale(1 1) rotate(0) translate(4 348)">
<title>state transitions</title>
<polygon fill="#ffffff" stroke="transparent" points="-4,4 -4,-348 227,-348 227,4 -4,4"/>
<g id="clust1" class="cluster state regular">
<title>cluster_next_state</title>
<path fill="none" stroke="#000000" stroke-width="2" d="M20,-8C20,-8 203,-8 203,-8 209,-8 215,-14 215,-20 215,-20 215,-324 215,-324 215,-330 209,-336 203,-336 203,-336 20,-336 20,-336 14,-336 8,-330 8,-324 8,-324 8,-20 8,-20 8,-14 14,-8 20,-8"/>
<text text-anchor="start" x="84.3208" y="-317.2" font-family="Helvetica,sans-Serif" font-size="12.00" fill="#000000">next_state</text>
</g>
<!-- next_state -->
<!-- LOAD -->
<g id="node2" class="node state regular">
<title>LOAD</title>
<polygon fill="#ffffff" fill-opacity="0.003922" stroke="transparent" stroke-width="2" points="72,-298 16,-298 16,-262 72,-262 72,-298"/>
<text text-anchor="start" x="27.6644" y="-276.2" font-family="Helvetica,sans-Serif" font-size="12.00" fill="#000000">LOAD</text>
<path fill="none" stroke="#000000" stroke-width="2" d="M28.3333,-263C28.3333,-263 59.6667,-263 59.6667,-263 65.3333,-263 71,-268.6667 71,-274.3333 71,-274.3333 71,-285.6667 71,-285.6667 71,-291.3333 65.3333,-297 59.6667,-297 59.6667,-297 28.3333,-297 28.3333,-297 22.6667,-297 17,-291.3333 17,-285.6667 17,-285.6667 17,-274.3333 17,-274.3333 17,-268.6667 22.6667,-263 28.3333,-263"/>
</g>
<!-- LOAD&#45;&gt;LOAD -->
<g id="edge2" class="edge transition">
<title>LOAD&#45;&gt;LOAD</title>
<path fill="none" stroke="#000000" d="M72.0183,-284.8247C83.888,-285.1883 94,-283.5801 94,-280 94,-277.5387 89.2205,-276.0094 82.3762,-275.4121"/>
<polygon fill="#000000" stroke="#000000" points="82.0957,-271.9049 72.0183,-275.1753 81.9356,-278.903 82.0957,-271.9049"/>
<text text-anchor="start" x="94" y="-277" font-family="Helvetica,sans-Serif" font-size="10.00" fill="#000000">not (load_done==1) &#160;&#160;</text>
</g>
<!-- FETCH -->
<g id="node3" class="node state regular">
<title>FETCH</title>
<polygon fill="#ffffff" fill-opacity="0.003922" stroke="transparent" stroke-width="2" points="83.5,-216 22.5,-216 22.5,-180 83.5,-180 83.5,-216"/>
<text text-anchor="start" x="33.505" y="-194.2" font-family="Helvetica,sans-Serif" font-size="12.00" fill="#000000">FETCH</text>
<path fill="none" stroke="#000000" stroke-width="2" d="M34.8333,-181C34.8333,-181 71.1667,-181 71.1667,-181 76.8333,-181 82.5,-186.6667 82.5,-192.3333 82.5,-192.3333 82.5,-203.6667 82.5,-203.6667 82.5,-209.3333 76.8333,-215 71.1667,-215 71.1667,-215 34.8333,-215 34.8333,-215 29.1667,-215 23.5,-209.3333 23.5,-203.6667 23.5,-203.6667 23.5,-192.3333 23.5,-192.3333 23.5,-186.6667 29.1667,-181 34.8333,-181"/>
</g>
<!-- LOAD&#45;&gt;FETCH -->
<g id="edge1" class="edge transition">
<title>LOAD&#45;&gt;FETCH</title>
<path fill="none" stroke="#000000" d="M45.9974,-261.8015C47.1393,-251.3976 48.5964,-238.1215 49.8855,-226.3768"/>
<polygon fill="#000000" stroke="#000000" points="53.3962,-226.4698 51.0082,-216.1476 46.438,-225.706 53.3962,-226.4698"/>
<text text-anchor="start" x="49" y="-236" font-family="Helvetica,sans-Serif" font-size="10.00" fill="#000000">load_done==1 &#160;&#160;</text>
</g>
<!-- DECODE -->
<g id="node4" class="node state regular">
<title>DECODE</title>
<polygon fill="#ffffff" fill-opacity="0.003922" stroke="transparent" stroke-width="2" points="89.5,-134 16.5,-134 16.5,-98 89.5,-98 89.5,-134"/>
<text text-anchor="start" x="27.8356" y="-112.2" font-family="Helvetica,sans-Serif" font-size="12.00" fill="#000000">DECODE</text>
<path fill="none" stroke="#000000" stroke-width="2" d="M28.8333,-99C28.8333,-99 77.1667,-99 77.1667,-99 82.8333,-99 88.5,-104.6667 88.5,-110.3333 88.5,-110.3333 88.5,-121.6667 88.5,-121.6667 88.5,-127.3333 82.8333,-133 77.1667,-133 77.1667,-133 28.8333,-133 28.8333,-133 23.1667,-133 17.5,-127.3333 17.5,-121.6667 17.5,-121.6667 17.5,-110.3333 17.5,-110.3333 17.5,-104.6667 23.1667,-99 28.8333,-99"/>
</g>
<!-- FETCH&#45;&gt;DECODE -->
<g id="edge3" class="edge transition">
<title>FETCH&#45;&gt;DECODE</title>
<path fill="none" stroke="#000000" d="M53,-179.8015C53,-169.3976 53,-156.1215 53,-144.3768"/>
<polygon fill="#000000" stroke="#000000" points="56.5001,-144.1476 53,-134.1476 49.5001,-144.1476 56.5001,-144.1476"/>
<text text-anchor="middle" x="54.3895" y="-154" font-family="Helvetica,sans-Serif" font-size="10.00" fill="#000000"> </text>
</g>
<!-- EXECUTE -->
<g id="node5" class="node state regular">
<title>EXECUTE</title>
<polygon fill="#ffffff" fill-opacity="0.003922" stroke="transparent" stroke-width="2" points="134,-52 56,-52 56,-16 134,-16 134,-52"/>
<text text-anchor="start" x="66.6662" y="-30.2" font-family="Helvetica,sans-Serif" font-size="12.00" fill="#000000">EXECUTE</text>
<path fill="none" stroke="#000000" stroke-width="2" d="M68.3333,-17C68.3333,-17 121.6667,-17 121.6667,-17 127.3333,-17 133,-22.6667 133,-28.3333 133,-28.3333 133,-39.6667 133,-39.6667 133,-45.3333 127.3333,-51 121.6667,-51 121.6667,-51 68.3333,-51 68.3333,-51 62.6667,-51 57,-45.3333 57,-39.6667 57,-39.6667 57,-28.3333 57,-28.3333 57,-22.6667 62.6667,-17 68.3333,-17"/>
</g>
<!-- DECODE&#45;&gt;EXECUTE -->
<g id="edge4" class="edge transition">
<title>DECODE&#45;&gt;EXECUTE</title>
<path fill="none" stroke="#000000" d="M62.3212,-97.8015C67.8131,-87.0791 74.8677,-73.306 81.0157,-61.3026"/>
<polygon fill="#000000" stroke="#000000" points="84.2612,-62.6436 85.7049,-52.1476 78.0309,-59.4524 84.2612,-62.6436"/>
<text text-anchor="middle" x="77.3895" y="-72" font-family="Helvetica,sans-Serif" font-size="10.00" fill="#000000"> </text>
</g>
<!-- EXECUTE&#45;&gt;FETCH -->
<g id="edge5" class="edge transition">
<title>EXECUTE&#45;&gt;FETCH</title>
<path fill="none" stroke="#000000" d="M122.9285,-52.2078C129.1797,-58.4661 134,-66.1584 134,-75 134,-157 134,-157 134,-157 134,-177.1819 113.7352,-187.4321 93.4778,-192.6366"/>
<polygon fill="#000000" stroke="#000000" points="92.6354,-189.2382 83.6226,-194.8077 94.1415,-196.0743 92.6354,-189.2382"/>
<text text-anchor="middle" x="135.3895" y="-113" font-family="Helvetica,sans-Serif" font-size="10.00" fill="#000000"> </text>
</g>
</g>
</svg>
